<?xml version="1.0" encoding="UTF-8"?>
<svg version="1.1" viewBox="0 0 2048 1091" width="242" height="129" xmlns="http://www.w3.org/2000/svg">
<path transform="translate(0)" d="m0 0h2048v1091h-2048z" fill="#16181A"/>
<path transform="translate(364,9)" d="m0 0h6l25 12 33 15 34 16 33 15 26 12 33 15 39 18 34 16 16 7 34 16 25 12 21 11 9 9 13 18 11 13 9 11 11 12 9 11 12 13 9 10 16 17 15 16 7 7 7 8 20 20 8 7 14 13 8 7 15 14 11 10 11 9 11 10 11 9 13 11 16 12 16 11 15 10 15 9 18 10 15 7 10 2 3-14 2-18 1-19h4l14 11 13 11 11 9 15 13 11 9 15 13 12 11 8 7 12 11 9 9 1 3-17 17-11 9-15 13-11 9-12 11-11 9-12 10-14 11-11 9-7 7-4 2-2-3-1-14v-41l-27 12-23 12-17 12-16 13-10 8-14 12-7 7-8 7-16 15-72 72-7 6-5 5-7 8-5 4-7 8-27 27-7 8-10 10-7 8-9 9-7 8-12 14-14 15-12 13-19 19-17 7-29 13-37 16-34 15-69 30-30 13-25 11-37 16-41 18-27 12-3 1-1-2-6-2-40-18-36-16-38-17-29-13-151-68-54-24-2-5v-271l-1-104v-156l-1-5-1-51v-57l1-93 2-5 17-9 16-7 30-14 26-12 18-8 57-26 29-13 27-12 15-7 28-13 29-13 16-7 15-7 28-13z" fill="#61A3E9"/>
<path transform="translate(1380,105)" d="m0 0h19l24 4 17 5 18 8 13 8 6 8v2l14-9 19-9 15-5 24-6 30-5 16-1 33 7 20 7 24 11 16 9 13 9 11 10 8 7 9 7 15 3 28 1 18 2 17 4 16 6 16 9 16 12 13 13 10 14 12 23 10 25 6 10 8 7 24 16 14 11 13 13 10 14 8 15 7 21 3 15v25l-3 18-3 19 1 11 7 9 9 10 8 14 7 19 3 14 3 27v12l-2 22-4 19-8 23-9 19-9 15-11 14-22 22-14 10-19 11-18 10-15 6-16 4-27 4-22 1-17 1h-31l-4 4-4 8-12 22-11 18-11 13-7 7-14 11-17 10-19 8-19 5-21 4-26 1-25-4-23-7-37-17-10-2-6 1-6 10-7 7-7 8-10 11-9 11-9 10-8 10-11 13-13 17-10 11-8 10-9 10-7 9-9 11-13 15-11 12-7 8-12 13-12 12-8 7-4 4-5 1-12-5-15-8-15-10-18-11-7-5v-7l12-36 7-26 3-13v-13l-3-9-1-1-45-1-27-4-20-6-17-8-15-10-10-8-8-7-9-11-9-12-8-14-5-11-5-14-6-24-4-10-3-5-21-13-17-11-13-10-13-12-10-12-9-14-4-9-2-3v-5l5-6 8-7 12-10 5-2v-2l4-3 6 1 7 9 8 11 8 10 20 20 10 7 11 5 15 4h26l21-4 16-6 8-8 8-14 7-9 10-7 17-5 5-1h11l11 4 8 7 6 8 4 7 2 10v8l-4 15-6 10-8 9-10 6-11 3-28 5-27 9-17 8-10 8-3 7 2 9 5 12 9 13 9 10 17 13 16 9 9 3h25l17-3 14-5 14-9 12-12 7-10 5-13 1-4v-17l-2-12v-14l5-13 4-6 8-7 6-3 15-2h11l10 2 10 5 7 8 6 12 2 10v14l-5 15-9 13-13 18-7 11-16 26-12 17-5 7v11l3 10 2 11v25l-3 18-3 14 1 6 5-3 8-10 13-15 9-11 13-16 8-10 10-13 8-10 9-14 5-13 2-17 1-17 1-123 1-1h52l1 1 1 52 1 22 2 17 9-4 9-12 8-14 7-12 5-14 2-30 2-6h52l1 5 1 7-1 27-4 23-3 7-4 7v6l5 5 22 10 9 3 19 3 24 2 16-2 19-6 14-7 10-8 7-6 11-15 12-21 12-25 4-9 3-2 6-1 75-5 30-5 30-8 8-6 3-4 1-3v-11l-5-17-8-17-9-12-12-12-12-7-20-6-20-2-1 1-1 69-1 1-17 1h-42l-1-1-1-19-2-95v-25l1-9-5 3-4 7-6 11-12 20-28 49-10 18-11 16-4 3h-8l-7-6-16-24-10-16-10-15-12-17-14-20-10-13-6-5v132l-2 5h-58l-3-1-2 1h-145l-12-3-21-1-10-2-15-6-14-8-14-10-10-9-7-7-8-11-8-13-7-15-6-20-2-14v-17l3-19 4-15 5-14 8-15 8-12 9-11 13-12 15-9 15-7 20-7 13-2 14-1h58v-174l-1-50-2-17-4-8-5-3-4-1h-18l-17 4-19 9-14 9-13 10-4 5 1 5 7 11 13 15 24 28 11 16 8 15 2 7v8l-3 9-9 13-7 7-14 7-4 1h-16l-11-4-11-7-3-3v-2l-4-2-4-8-1-6v-24l-2-15-5-12-9-10-14-9-11-5-13-3h-21l-16 4-14 6-14 10-12 11-9 11-7 15-2 11 2 5 7 7 16 8 25 10 17 4 22 2 12 4 9 8 6 9 4 14v13l-4 14-7 11-7 6-14 6-3 1h-10l-12-5-9-7-25-25-14-10-16-5-5-1h-16l-19 3-16 6-11 7-13 11-12 12-8 11-4 12-6-1-16-10-13-10-6-5-3-5 1-5 5-13 8-10 9-11 10-10 10-8 14-11 20-12 12-6 3-9 4-21 5-15 7-16 8-13 10-14 14-14 16-11 14-8 19-7 21-5 18-2 20-1 11-4 12-8 9-7 16-13 13-10 14-9 17-9 21-7 16-3z" fill="#D2AA6E"/>
<path transform="translate(720,173)" d="m0 0 5 3 7 7 13 18 11 13 9 11 11 12 9 11 12 13 9 10 16 17 15 16 7 7 7 8 20 20 8 7 14 13 8 7 15 14 11 10 11 9 11 10 11 9 13 11 16 12 16 11 15 10 15 9 18 10 15 7 10 2 3-14 2-18 1-19h4l14 11 13 11 11 9 15 13 11 9 15 13 12 11 8 7 12 11 9 9 1 3-17 17-11 9-15 13-11 9-12 11-11 9-12 10-14 11-11 9-7 7-4 2-2-3-1-14v-41l-27 12-23 12-17 12-16 13-10 8-14 12-7 7-8 7-16 15-72 72-7 6-5 5-7 8-5 4-7 8-27 27-7 8-10 10-7 8-9 9-7 8-12 14-14 15-12 13-19 19-17 7-29 13-37 16-34 15-69 30-30 13-25 11-37 16-41 18-27 12-3 1-1-37v-169l-3-3-70-31-36-16-26-11-29-13-58-25-1-1-1-14v-47l5 1 32 14 71 30 42 18 31 13 28 12 11 5h3l1-2v-199l-1-8-9-2-17-7-36-16-103-44-38-17-19-8-1-4v-57l5 1 24 11 31 13 29 13 26 11 39 17 41 18 28 13 5 1 2-4 21-9 41-18 119-52 65-28 41-18 42-18 16-7h2l1-4 1-31v-154l-1-16-1-5z" fill="#5E57CD"/>
<path transform="translate(10,443)" d="m0 0 5 2 26 12 28 12 39 16 34 15 10 5 30 13 34 15 38 16 60 26 39 17 12 4 2 8v199l-2 3-5-1-25-11-40-17-31-13-42-18-26-11-33-14-21-9 1 5v42l1 14 30 13 41 18 30 13 32 14 63 28 23 10 4 4v203l-3 1-26-12-41-18-42-19-36-16-35-16-29-13-80-36-63-28-2-5v-271l-1-104v-92z" fill="#D2AA6E"/>
<path transform="translate(1475,155)" d="m0 0 13 13 10 13 7 15 3 15 2 31 3 53 2 63v16l55-1-2-117-1-41-2-47 2-4 6-3 9-1h10l22 5 16 6 20 9 13 8 10 9 6 7-2 9-20 36-8 17-11 27-7 13-8 11-5 10v21l4 25 11 44 11 33 8 16 10 14 2 1 2-6 6-10 6-8 8-14 3-6 1-7v-8l-7-17v-16l4-9 10-19 5-12 1-9-6-23-1-7v-18l5-16 7-12 11-12 11-10 14-9 12-4 14-1 15 3 16 7 14 8 14 12 10 14 6 14 1 3v9l-5 4-20 7-16 8-12 8-10 8-12 11-8 9-7 12-1 6 5 4 3 2 27 1 21-5 15-5 15-10 11-4 5-1h20l12 3 19 8 11 8 8 9 8 15 6 21 1 12-4 12-5 1-8-4-8-7-9-6-15-6h-11l-14 5-9 7-7 9-6 12-3 10v10l3 9 8 10 7 7 10 7 5 2 8 1h13l18-3h9l10 3 6 4 7 6 11 15 7 14 5 17 1 7v18l-4 21-4 13-9 16-3 3-6 1-3-6-3-12-5-13-12-16-15-15-15-10-12-6-21-7-32-8-16-3-2-1-1-130-13-1h-45l-6 10-36 54-12 19-7 11-10 16-14 23-4 4h-2l-8-11-13-23-7-10-7-11-12-20-9-14-18-27-11-19-1-1-9-1-51-1v151l-1 42-1 13h-92l-30-1-34-3-18-3-15-5-10-7-7-7-9-14-4-9-4-19-1-15 3-16 7-13 8-10 14-15 7-9 5-4 89-2 30-2 15-3h3l1-7 1-17v-60l-1-113v-40l1-40 2-20z" fill="#16181A"/>
<path transform="translate(1380,105)" d="m0 0h19l24 4 17 5 18 8 13 8 6 8 1 9-4 14-2 13-1 12-1 40v40l1 113v60l-1 17-2 7-11 3-20 2-17 1-89 2-7 6-7 9-14 15-9 14-4 9-2 13 1 15 4 19 8 16 8 10 8 7 10 5 14 4 22 3 26 2 30 1h91l1 1v52l-3 2h-145l-12-3-21-1-10-2-15-6-14-8-14-10-10-9-7-7-8-11-8-13-7-15-6-20-2-14v-17l3-19 4-15 5-14 8-15 8-12 9-11 13-12 15-9 15-7 20-7 13-2 14-1h58v-174l-1-50-2-17-4-8-5-3-4-1h-18l-17 4-19 9-14 9-13 10-4 5 1 5 7 11 13 15 24 28 11 16 8 15 2 7v8l-3 9-9 13-7 7-14 7-4 1h-16l-11-4-11-7-3-3v-2l-4-2-4-8-1-6v-24l-2-15-5-12-9-10-14-9-11-5-13-3h-21l-16 4-14 6-14 10-12 11-9 11-7 15-2 11 2 5 7 7 16 8 25 10 17 4 22 2 12 4 9 8 6 9 4 14v13l-4 14-7 11-7 6-14 6-3 1h-10l-12-5-9-7-25-25-14-10-16-5-5-1h-16l-19 3-16 6-11 7-13 11-12 12-8 11-4 12-6-1-16-10-13-10-6-5-3-5 1-5 5-13 8-10 9-11 10-10 10-8 14-11 20-12 12-6 3-9 4-21 5-15 7-16 8-13 10-14 14-14 16-11 14-8 19-7 21-5 18-2 20-1 11-4 12-8 9-7 16-13 13-10 14-9 17-9 21-7 16-3z" fill="#5E57CD"/>
<path transform="translate(1025,659)" d="m0 0 6 1 7 9 8 11 8 10 20 20 10 7 11 5 15 4h26l21-4 16-6 8-8 8-14 7-9 10-7 17-5 5-1h11l11 4 8 7 6 8 4 7 2 10v8l-4 15-6 10-8 9-10 6-11 3-28 5-27 9-17 8-10 8-3 7 2 9 5 12 9 13 9 10 17 13 16 9 9 3h25l17-3 14-5 14-9 12-12 7-10 5-13 1-4v-17l-2-12v-14l5-13 4-6 8-7 6-3 15-2h11l10 2 10 5 7 8 6 12 2 10v14l-5 15-9 13-13 18-7 11-16 26-12 17-5 7v11l3 10 2 11v25l-3 18-3 14 1 6 5-3 8-10 13-15 9-11 13-16 8-10 10-13 8-10 9-14 5-13 2-17 1-17 1-123 1-1h52l1 1 1 52 1 22 2 17 9-4 9-12 8-14 7-12 4-10h1l1 8 1 49v39l-7 9-13 14-7 8-11 13-12 14-9 11-14 17-7 9-12 14-9 11-7 8-11 14-10 11-7 8-9 10-7 8-12 13-12 12-8 7-4 4-5 1-12-5-15-8-15-10-18-11-7-5v-7l12-36 7-26 3-13v-13l-3-9-1-1-45-1-27-4-20-6-17-8-15-10-10-8-8-7-9-11-9-12-8-14-5-11-5-14-6-24-4-10-3-5-21-13-17-11-13-10-13-12-10-12-9-14-4-9-2-3v-5l5-6 8-7 12-10 5-2v-2z" fill="#5E57CD"/>
<path transform="translate(717,175)" d="m0 0h2l2 5 1 16v154l-1 31-2 4-20 9-35 15-71 31-28 12-80 35-35 15-43 19-25 11-10 4-2 3h-2l-1-10-1-28v-39l1-71 1-41 1-16 5-5 19-10 28-13 31-14 30-13 35-16 28-12 42-19 29-13 33-15 25-11 40-17z" fill="#D2AA6E"/>
<path transform="translate(713,718)" d="m0 0h6l1 3v203l-4 3-17 7-29 13-37 16-34 15-69 30-30 13-25 11-37 16-41 18-27 12-3 1-1-37v-132l1-35 3-5 14-7 34-15 16-7 15-7 29-13 26-11 26-12 33-14 13-6 36-16 39-17 36-16z" fill="#61A3E9"/>
<path transform="translate(11,713)" d="m0 0 15 8 28 13 38 16 26 11 25 11 10 5 35 15 66 29 30 13 38 17 32 14 12 6 1 2v203l-3 1-26-12-41-18-42-19-36-16-35-16-29-13-80-36-63-28-2-5v-36z" fill="#D2AA6E"/>
<path transform="translate(720,653)" d="m0 0h2v38l-1 26-8 2-26 11-29 13-64 28-20 9-30 13-29 13-27 12-30 13-53 24-34 15-4 5-2-4-11-5-63-28-39-17-25-11-30-13-41-18-12-5-1-1-1-14v-47l5 1 32 14 71 30 42 18 31 13 28 12 11 5h3l2-7h1v9l15-7 27-12 83-36 41-18 35-15 25-11 26-11 43-19 46-20z" fill="#16181A"/>
<path transform="translate(719,383)" d="m0 0h1l1 15v37l-1 11-19 7-20 9-29 13-30 13-29 13-41 18-56 25-26 11-31 14-36 16-22 10-12 3-1 7-2-1-1-8-9-2-17-7-36-16-103-44-38-17-19-8-1-4v-57l5 1 24 11 31 13 29 13 26 11 39 17 41 18 28 13 5 1 2-4 21-9 41-18 119-52 65-28 41-18 42-18 16-7h2z" fill="#16181A"/>
<path transform="translate(10,383)" d="m0 0 1 2 10 3 58 24 28 12 25 11 11 5v61l-24-10-23-10-29-12-26-11-28-13-3-2-1-52z" fill="#5E57CD"/>
<path transform="translate(11,656)" d="m0 0 21 8 31 13 45 19 27 12 7 3 1 6v55l-5-1-31-14-27-11-30-13-26-12-11-6-2-2-1-32v-21z" fill="#5D56CA"/>
<path transform="translate(1750,414)" d="m0 0h45l13 1 1 4-4 10h-2l-4-5-8-2h-22l-11 3-2 4-9 9-9 11-3 1-2 5h-2l-5 10h-2v2l-5 5-4 7h-2l-1 4-7 11-6 8-4 7-10 12-4 4-1-4 10-15 12-19 14-22 7-10 14-21 7-11z" fill="#E4B974"/>
<path transform="translate(1470,176)" d="m0 0h1l-1 50v40l1 113v60l-1 17h-1l-3-26v-83l-1-19v-94l1-29 3-21z" fill="#4E47B5"/>
<path transform="translate(715,717)" d="m0 0h7l1 15 1 33 1 153-5 4-1-18v-186z" fill="#544DBE"/>
<path transform="translate(1293,574)" d="m0 0 3 4 7 12 11 12 8 5 15 5 26 4 26 2 30 1h91l1 1v52l-3 2h-145l-4-2 149-1 1-8v-37h-2v-2h-2v-2h-113l-32-3-23-4-16-5-8-5-1-3-4-2-6-5-5-9-4-8z" fill="#4E47B5"/>
<path transform="translate(1677,211)" d="m0 0h2l-1 4-5 9-3 7-6 15-5 12-7 16-5 13-4 11-5 10-4 5-1 2h-2l-2 6-5 9-3 13-1 6-2-4v-21l10-16 6-9 7-15 8-20 11-23 14-24z" fill="#E4B974"/>
<path transform="translate(145,775)" d="m0 0 6 1 39 17 94 41 38 17 32 14 12 6v6l-5-1-5-4-8-4-2-4-9-3-20-9-13-6-12-4-2-2-16-5-8-5-9-3-6-3v-2l-5-1-13-5-11-5-30-12-5-3-10-4-18-8v-2l-4-1-10-5z" fill="#E2B773"/>
<path transform="translate(1870,422)" d="m0 0h5l-1 3-4 4h-2l-2 5-6 9h-2l-1 6-4 10v9l2 10 1 6-1 5h2v2h2l5 5 10 5 8 5v1h-9l-9-6-10-9-7-8-4-8-1-4v-10l5-15 9-14 9-8z" fill="#E4B974"/>
<path transform="translate(1744,719)" d="m0 0h22l-3 2-10 2-7 4-10 16-3 7-7 14-3 8-4 5-5 9-10 11h-2v2l-9 6-11 7-12 5-17 4-3 1h-10v-1l12-3 19-6 14-7 10-8 7-6 11-15 12-21 12-25 4-9z" fill="#E4B974"/>
<path transform="translate(146,504)" d="m0 0 6 1 30 13 34 15 38 16 60 26 39 17 12 4-1 6-5-1-5-4-3-3-13-5-15-7-28-12-12-5-8-3-40-16-6-4-12-4-9-4-15-6-17-7-19-10-11-6z" fill="#E2B773"/>
<path transform="translate(1416,715)" d="m0 0h52l1 1 1 52 1 22 2 17-4-4-2-5-1-14-1-26v-34l-2-3-12-2-34-2v84l-1 43-2 23-1 5h-1l1-16 1-17 1-123z" fill="#4E47B5"/>
<path transform="translate(369,598)" d="m0 0h1v200l-1 6h-1l-1-6-1-32v-151l2-13z" fill="#4E47B5"/>
<path transform="translate(1836,303)" d="m0 0 4 1-9 4-19 11-10 7-4 4-6 3-9 7-7 9-3 3-13 17-2 2h-4l1-6 8-13 11-12 12-11 16-11 10-6 20-8z" fill="#E4B974"/>
<path transform="translate(369,871)" d="m0 0h1v207l-3 1-1-37v-132l1-35z" fill="#544DBE"/>
<path transform="translate(44,670)" d="m0 0 5 1 40 17 28 12 25 11v6l-6-1-9-5-2-2-6-1-18-8v-2h-6l-3-3-8-4-10-3-3-1-2-4-13-4-9-5-1-3z" fill="#423D95"/>
<path transform="translate(1413,180)" d="m0 0h1l1 7 1 24v202l-1 2-8 1-51 1-21 2h-9l3-2 13-2 14-1h58v-174z" fill="#4E47B5"/>
<path transform="translate(1591,555)" d="m0 0 5 5 7 9 11 14 9 14 8 11 6 10 4 7 15 20v2l4 2v4l-5-2-6-7-14-21-10-16-10-15-24-34z" fill="#E3B773"/>
<path transform="translate(1906,296)" d="m0 0 4 2 23 16 14 10 10 9 8 8 10 14 4 7v4l-4-1-6-10-8-11-3-3v-2h-2v-2h-2v-2l-4-2-9-7-8-7-8-6-5-2v-2l-3-1v-2l-5-2-6-5z" fill="#E3B873"/>
<path transform="translate(1796,181)" d="m0 0h8l17 6 15 8 14 10 10 9 8 8 10 14 7 13v3h-2v-2h-2l-3-6-6-9-9-11-14-14v-2l-5-2-3-3-7-4-6-4-6-3-1-2-14-5-11-3z" fill="#E3B873"/>
<path transform="translate(1611,110)" d="m0 0h9l20 6 19 8 16 8 13 7 13 9 11 10 8 7 7 6v2l-4-1-1-3-5-2-11-8-6-4v-2h-2v-2h-2v-2h-2v-2l-5-2-9-5-8-6-7-3v-2l-6-2-13-6-21-7-14-3z" fill="#E2B773"/>
<path transform="translate(1038,671)" d="m0 0 5 5 10 13 21 21 10 7 11 5 15 4h26l21-4 3 1-15 4-4 1-13 1h-17l-16-4-13-5-9-7-4-3v-2l-4-2-8-8v-2h-2l-3-5-3-3v-2l-4-2-4-4-3-5z" fill="#4E47B5"/>
<path transform="translate(269,557)" d="m0 0 6 1 78 34 12 4-1 6-5-1-5-4-3-3-13-5-15-7-28-12-12-5-8-3-6-3z" fill="#DFB472"/>
<path transform="translate(1510,755)" d="m0 0h1l1 8 1 49v36l-1-2h-2l-1-7v-77l-1-3z" fill="#4E47B5"/>
<path transform="translate(770,232)" d="m0 0 6 5 9 11 12 13 9 10 16 17 15 16 5 6-4-1-5-5-7-6v-2h-2l-7-8-1-3-3-1-6-7v-2h-2v-2h-2l-7-8-4-4v-2h-2l-6-8v-2h-2v-2h-2l-4-5v-2h-2l-4-5z" fill="#4E47B5"/>
<path transform="translate(1187,327)" d="m0 0 9 2 14 3 22 2 12 4 9 8 6 9 4 14v13l-1 5h-1l-1-19-4-13-6-9-9-5-15-5-15-1-16-3-8-4z" fill="#4E47B5"/>
<path transform="translate(1545,112)" d="m0 0h8l-4 2-25 6-11 4h-2v2l-19 9-6 2-7 7-1-3 5-5 10-6 17-8 15-5z" fill="#E2B773"/>
<path transform="translate(1243,486)" d="m0 0 1 3-5 13-4 15-2 16-1 12 1 9v10l2 16-2-3-3-14-1-8v-17l3-19 4-15 5-14z" fill="#4E47B5"/>
<path transform="translate(1875,564)" d="m0 0 7 1 12 6 15 11 16 16 6 8v5l-5-3-7-11v-3h-3l-1-4h-2v-2l-5-1-6-5-5-6-14-8-8-3z" fill="#E3B873"/>
<path transform="translate(11,656)" d="m0 0 21 8 12 5-1 2-7-2-9-4-6-2h-6l-2 4-1 46h-1l-1-32v-21z" fill="#4C45AF"/>
<path transform="translate(1371,467)" d="m0 0h66v1l-17 1-47 1h-40v-1z" fill="#4E47B5"/>
<path transform="translate(1570,417)" d="m0 0h5l11 19 12 18-1 4-5-4-4-7-5-7-3-7v-3l-2-1-9-10z" fill="#E1B673"/>
<path transform="translate(1321,894)" d="m0 0h1l1 10 3 10 2 11v25l-3 18-3 14h-1v-16l3-6 1-3 1-13v-12l-1-10-2-5v-7h-2z" fill="#4E47B5"/>
<path transform="translate(1635,420)" d="m0 0 3 3 3 8 5 15 2 1 2 7 1 5-2 1-3-3-9-24-2-6z" fill="#E1B673"/>
<path transform="translate(400,521)" d="m0 0 3 1-16 8-15 6-3 1v-8l16-3z" fill="#E4B874"/>
<path transform="translate(1991,486)" d="m0 0 4 2 9 10 8 14 2 5-1 5-3-2-6-14-7-10-3-5-3-3z" fill="#E2B773"/>
<path transform="translate(337,859)" d="m0 0 5 1 21 9 3 2v6l-5-1-5-4-8-4-2-4-9-3z" fill="#E3B873"/>
<path transform="translate(1652,464)" d="m0 0 5 2v2h7l6-2-3 9-3 6-3-1-8-12z" fill="#E1B673"/>
<path transform="translate(1899,683)" d="m0 0h1v8l-3 5-4 4-13 4-18 5-7 1v-2l30-8 8-6 3-4z" fill="#DFB472"/>
<path transform="translate(986,440)" d="m0 0 5 2 11 8 18 12 25 15-3 1-18-10-8-5-6-5-8-4v-2l-4-2-9-6z" fill="#4E47B5"/>
<path transform="translate(1479,158)" d="m0 0 4 1v2l4 2 6 8 4 5 7 10 4 13h-2l-8-16-8-11-11-12z" fill="#E2B773"/>
<path transform="translate(1927,380)" d="m0 0h2l8 13 3 11 2 6 1 15h-2l-3-16-5-15-6-11z" fill="#E2B773"/>
<path transform="translate(290,838)" d="m0 0 5 1 43 19-1 2-4-1-16-7-13-6-12-4z" fill="#E0B572"/>
<path transform="translate(1842,356)" d="m0 0 2 1-20 13-13 4h-7l2-2h5v-2l12-4 9-6z" fill="#E3B873"/>
<path transform="translate(2015,532)" d="m0 0 3 1v2h2l2 18v9l-3-4-4-19z" fill="#E6BA74"/>
<path transform="translate(1380,105)" d="m0 0h19l19 3-4 2h-18v-1l-6-1v-2h-10z" fill="#4E47B6"/>
<path transform="translate(1148,307)" d="m0 0 11 7 18 8-3 2v-2l-7-1-13-5-6-4-1-4z" fill="#4E47B5"/>
<path transform="translate(1562,764)" d="m0 0 2 1v12l-3 7-5 5 1-7 2-6z" fill="#E3B873"/>
<path transform="translate(44,670)" d="m0 0 5 1 19 8-2 2-7-1-12-6-1-3z" fill="#3B3780"/>
<path transform="translate(367,1045)" d="m0 0h2l1 33-3 1z" fill="#4D46B1"/>
<path transform="translate(1189,526)" d="m0 0 4 2 15 15 1 3-5 5-4 3 2-4 3-3h2l-1-3-5-3-2-5h-2v-2l-4-2v-2h-2z" fill="#4E47B5"/>
<path transform="translate(1545,112)" d="m0 0h8l-4 2-25 6-6 2h-5l3-2 24-7z" fill="#DFB472"/>
<path transform="translate(1228,672)" d="m0 0h11l11 4 3 3-9-2-10-2h-15l4-2z" fill="#4E47B5"/>
<path transform="translate(1309,757)" d="m0 0h1l-1 19v16h-1l-2-12v-14z" fill="#4E47B5"/>
<path transform="translate(1951,522)" d="m0 0 5 5 5 7v3h2l3 8 1 5h-2l-5-12-8-12z" fill="#DEB472"/>
<path transform="translate(1904,424)" d="m0 0 6 1 13 10 6 5-2 1-9-7-8-4-3-3z" fill="#E0B572"/>
<path transform="translate(1881,635)" d="m0 0 4 4 8 14 2 5v4h-2l-7-16-5-8z" fill="#E0B672"/>
<path transform="translate(1570,417)" d="m0 0h5l6 11-1 3-5-5-6-8z" fill="#E4B874"/>
<path transform="translate(353,594)" d="m0 0 9 1 3 1-1 6-5-1-5-4z" fill="#E4B974"/>
<path transform="translate(1899,683)" d="m0 0h1v8l-3 5-4 4-5 1 4-6 4-5z" fill="#E3B873"/>
<path transform="translate(1156,823)" d="m0 0 4 4 9 11 2 4h-2v-2h-2v-2h-2v-2l-4-2-4-4-2-6z" fill="#4E47B5"/>
<path transform="translate(1662,815)" d="m0 0 4 1-2 2-11 3-3 1h-10v-1l12-3z" fill="#E1B673"/>
<path transform="translate(1980,372)" d="m0 0 4 1 2 9v5h-3l-3-11z" fill="#E5B974"/>
<path transform="translate(1833,262)" d="m0 0 5 5 5 9 4 11-1 3-5-12-6-11-2-2z" fill="#E0B572"/>
<path transform="translate(1514,415)" d="m0 0h18v1l-9 1-9 6z" fill="#E7BB75"/>
<path transform="translate(1685,380)" d="m0 0 1 3-2 6h-2v15l-3-4v-7l4-10z" fill="#E4B874"/>
<path transform="translate(1597,459)" d="m0 0 8 5 2 4v5l-2-1v-2l-3-1-5-8z" fill="#E3B873"/>
<path transform="translate(1677,211)" d="m0 0h2l-1 4-5 9-5 8-3 2 2-5z" fill="#DEB472"/>
<path transform="translate(1796,181)" d="m0 0h8l17 6v2l-5-1-13-4-7-2z" fill="#E1B673"/>
<path transform="translate(1007,673)" d="m0 0 2 1-14 14-2 8-2-2v-5l5-6 8-7z" fill="#534CBC"/>
<path transform="translate(1938,404)" d="m0 0 2 1 2 5 1 15h-2l-3-16z" fill="#DEB472"/>
<path transform="translate(172,988)" d="m0 0 8 3 12 6-4 1-16-8z" fill="#E1B673"/>
<path transform="translate(1875,564)" d="m0 0 7 1 12 6 4 4-5-1-10-6-8-3z" fill="#DFB472"/>
<path transform="translate(1082,469)" d="m0 0h1v8l-3 16-6-1-2-2h6l3-14z" fill="#4E47B5"/>
<path transform="translate(1986,453)" d="m0 0h1v15h-2l-1-5v-7z" fill="#E3B873"/>
<path transform="translate(1762,792)" d="m0 0 1 3-6 11-3 2 3-9h2l2-5z" fill="#E1B673"/>
<path transform="translate(1047,479)" d="m0 0 6 2 13 6v1l-8-1-11-7z" fill="#4E47B5"/>
<path transform="translate(340,588)" d="m0 0 6 1 10 4v1l-9-1-7-3z" fill="#DDB371"/>
<path transform="translate(1698,355)" d="m0 0h1v5l-6 10h-2l2-6z" fill="#E0B672"/>
<path transform="translate(1150,491)" d="m0 0 8 6 7 6h-3l-12-9z" fill="#4E47B5"/>
<path transform="translate(357,1071)" d="m0 0h7l2 6-6-2-3-2z" fill="#E3B873"/>
<path transform="translate(1889,649)" d="m0 0h2l4 9v4h-2l-4-10z" fill="#DEB372"/>
<path transform="translate(1698,278)" d="m0 0h1l-1 10-1 4h-2l1-9z" fill="#DFB472"/>
<path transform="translate(715,717)" d="m0 0h7v15h-1v-11h-2v-3z" fill="#514ABA"/>
<path transform="translate(1165,504)" d="m0 0 8 6 3 4-5-2-6-5z" fill="#4E47B5"/>
<path transform="translate(1371,106)" d="m0 0h9l5 1-3 1v2l-9-2z" fill="#4E47B5"/>
</svg>
