<?xml version="1.0" encoding="UTF-8"?>
<svg version="1.1" viewBox="0 0 2048 330" width="800" height="129" xmlns="http://www.w3.org/2000/svg">
<path transform="translate(0)" d="m0 0h2048v330h-2048z" fill="#141619"/>
<path transform="translate(119,3)" d="m0 0 6 1 72 33 28 13 7 5 9 12 12 13 7 8 22 22 8 7 15 13 18 12 10 5 4 1 1-15 5 2 10 9 11 9 12 11v2l-8 7-14 12-13 11h-4l-1-15-16 8-10 8-10 9-13 12-28 28-7 8-7 7-7 8-3 4h-2l-2 4h-2l-1 3-22 10-69 30-13 6-6-1-40-18-63-28-2-6v-221l16-8 68-31z" fill="#5FA3E7"/>
<path transform="translate(423,32)" d="m0 0h14l13 4 6 4h4l12-5 14-3h10l14 4 13 7 11 9 20 2 11 4 10 8 6 10 7 14 12 8 8 9 4 9 1 4v14l-1 11 7 9 3 9 1 6v12l-3 12-7 14-9 10-11 7-8 4-13 3-23 1-9 15-6 7-9 6-13 4-5 1h-10l-12-3-11-5-6-1-2 4-9 10-18 22-11 13-11 12-6 6-6-2-16-10 6-22v-9l-17-1-12-3-10-6-8-8-5-8-6-18-12-8-10-9-5-8 1-4 9-8 3 1 6 8 8 8 8 3h11l9-3 8-10 8-3 7 1 5 5 1 2v9l-4 6-4 3-17 4-10 5-1 1 1 7 4 6 7 6 6 3h11l9-3 5-4 4-7v-15l3-6 3-3 9-1 7 3 3 4 1 9-4 8-7 10-7 11-2 3 1 8v12l-1 8 10-11 13-17 3-7 1-46 1-1h15l1 1 1 26 4-2 6-11 2-14h16l1 3v8l-2 10-2 5 6 2 5 2 6 1h12l10-4 6-5 8-14 3-6 1-1 26-2 14-3 5-3v-7l-6-12-7-5-12-2v20l-1 1h-18l-2-44-10 18-10 17-3 3-4-2-8-11-7-11-7-9v-2h-2v41h-65l-13-2-12-7-8-9-5-11-1-5v-10l4-13 6-9 8-7 12-5 6-1h20l-1-71-1-4-8-1-9 3-11 7 2 5 9 11 6 8 2 4v7l-6 7-4 2h-7l-6-4-3-4-1-14-4-6-7-4-4-1h-7l-9 3-10 9-2 5v5l7 4 12 4 11 2 4 5 1 2v9l-3 5-6 4h-6l-9-7v-2l-4-2-4-3-3-1h-12l-9 4-8 7-4 7-6-3-7-6 1-5 7-9 10-8 7-4h2l3-14 6-11 5-6 11-7 10-3 13-1 9-5 11-9 10-5z" fill="#D0A96C"/>
<path transform="translate(228,53)" d="m0 0 4 2 9 12 12 13 7 8 22 22 8 7 15 13 18 12 10 5 4 1 1-15 5 2 10 9 11 9 12 11v2l-8 7-14 12-13 11h-4l-1-15-16 8-10 8-10 9-13 12-28 28-7 8-7 7-7 8-3 4h-2l-2 4h-2l-1 3-22 10-69 30-13 6-4-1 1-62-9-3-29-13-28-12-2-2v-18l20 8 44 19 4 1v-63l-6-1-20-9-37-16-5-3v-17l5 1 30 13 25 11 9 3 34-15 69-30 2-1 1-56z" fill="#6059CD"/>
<path transform="translate(1775,61)" d="m0 0h16v170h-27l-1-11-5 2-14 8-12 3h-21l-13-4-10-5-10-8-7-8-7-15-3-14v-20l3-14 6-10 11-12 10-8 11-5 5-1h30l10 3 11 7 3 2v-23l2-36z" fill="#FCFCFB"/>
<path transform="translate(1083,109)" d="m0 0h30v14l14-10 10-4h30l13 3 9 5 10 9 7 9 5 10 2 7 1 8v16l-2 14-3 9-5 10-10 11-14 8-11 4-5 1h-20l-14-4-11-7-5-4-1 58h-27l-1-1-1-7-1-133z" fill="#FCFBFA"/>
<path transform="translate(1239,71)" d="m0 0h27l6 9 17 29 8 13 12 20 20 32v2h2l1-4 9-15 5-9 17-28 17-29 8-13 5-7h26v161h-29l-1-102-4 4-13 21-17 29-13 21-7 9-2 1h-8l-9-10-15-25-17-28-13-21-1 5-1 95h-30z" fill="#FCFBFA"/>
<path transform="translate(1901,70)" d="m0 0h12l3 4 16 36 8 17 16 36 28 60 3 6v2h-40l-13-31v-2l-77-1-11 25-4 9h-31l-6-1 1-6 17-38 19-42 16-36 17-37z" fill="#D0AA6B"/>
<path transform="translate(14,135)" d="m0 0 9 3 35 15 39 17 21 9 3 1v63l-6-1-54-23-7-3v17l15 7 43 19 9 4v62l-5-1-36-16-42-19-23-10-2-6v-137z" fill="#D1AA6B"/>
<path transform="translate(887,109)" d="m0 0h30l16 4 12 6 10 9 11 18 3 10v30l-5 13-7 11-10 10-12 7-11 4-14 2h-16l-14-3-12-6-9-7-8-8-6-9-4-11-2-8v-24l4-13 9-14 11-10 13-8z" fill="#FCFBFA"/>
<path transform="translate(456,48)" d="m0 0 4 2 5 7 2 10 1 17v29h17l-1-46v-17l1-1h11l13 5 6 4 3 3-1 5-8 15-4 10-5 8 1 13 6 22 4 8 1 3 3-3 6-10-2-14 5-10 1-5-2-9 1-9 5-8 9-7 3-1h7l10 4 6 5 5 10-1 3-11 5-11 8-4 6-1 3 10 1 12-3 7-4h11l10 5 5 8 2 10-1 3-5-1-7-4-5-1-8 4-4 9 2 7 6 5 2 1h17l5 4 5 9 1 3v14l-4 10-4 1-4-10-7-8-6-4-16-5-7-2-1-1v-36l1-2h-18l-14 21-12 19h-3l-13-21-11-17v-2l-19-1v59l-1 3h-44l-11-2-6-4-4-5-2-6v-12l6-9 5-6 2-1 31-1 10-2 1-87z" fill="#141619"/>
<path transform="translate(759,68)" d="m0 0h17l15 3 13 5 12 7 11 9 1 4-17 17-5-2-11-8-16-6-4-1h-20l-12 3-11 6-10 9-6 9-5 12-2 12v9l4 18 6 10 11 11 11 7 7 3 5 1h20l16-4 10-6 9-7 4 1 14 12 3 3-2 4-12 10-14 8-12 5-10 1h-33l-17-5-11-6-14-10-10-11-8-14-5-13-3-14v-17l3-16 5-12 6-11 8-10 9-8 13-8 15-6 13-3z" fill="#FBFAF9"/>
<path transform="translate(423,32)" d="m0 0h14l13 4 6 4 1 1v7l-1 4-1 87-3 2-8 1-31 1-5 5-6 8-1 2v12l4 9 5 4 5 2 8 1 44 1 1-3v20h-47l-13-2-12-7-8-9-5-11-1-5v-10l4-13 6-9 8-7 12-5 6-1h20l-1-71-1-4-8-1-9 3-11 7 2 5 9 11 6 8 2 4v7l-6 7-4 2h-7l-6-4-3-4-1-14-4-6-7-4-4-1h-7l-9 3-10 9-2 5v5l7 4 12 4 11 2 4 5 1 2v9l-3 5-6 4h-6l-9-7v-2l-4-2-4-3-3-1h-12l-9 4-8 7-4 7-6-3-7-6 1-5 7-9 10-8 7-4h2l3-14 6-11 5-6 11-7 10-3 13-1 9-5 11-9 10-5z" fill="#6159CD"/>
<path transform="translate(1515,109)" d="m0 0h27v13l11-6 9-5 9-2h29l11 3 8 5 10 9 5 9 2 10 1 18 1 68-4 1-25-1-2-76-3-9-7-8-9-4-5-1h-8l-10 2-8 4-7 8-3 7-2 14-1 64h-29l-1-7z" fill="#FCFCFB"/>
<path transform="translate(320,199)" d="m0 0 3 1 6 8 8 8 8 3h11l9-3 8-10 8-3 7 1 5 5 1 2v9l-4 6-4 3-17 4-10 5-1 1 1 7 4 6 7 6 6 3h11l9-3 5-4 4-7v-15l3-6 3-3 9-1 7 3 3 4 1 9-4 8-7 10-7 11-2 3 1 8v12l-1 8 10-11 13-17 3-7 1-46 1-1h15l1 1 1 26 4-2 6-11 2-4v32l-11 12-18 22-11 13-11 12-6 6-6-2-16-10 6-22v-9l-17-1-12-3-10-6-8-8-5-8-6-18-12-8-10-9-5-8 1-4z" fill="#6159CD"/>
<path transform="translate(226,53)" d="m0 0h2l1 7-1 56-14 7-76 33-17 7v-49l1-13 3-3 35-16 41-18 20-9z" fill="#D1AA6B"/>
<path transform="translate(225,217)" d="m0 0h3v63l-22 10-69 30-13 6-4-1 1-61 5-3 33-15 30-13 29-13z" fill="#5FA2E7"/>
<path transform="translate(14,216)" d="m0 0 23 10 17 7 15 7 43 19 9 4v62l-5-1-36-16-42-19-23-10-2-6z" fill="#D1AA6B"/>
<path transform="translate(2e3 71)" d="m0 0h36v160h-36l-1-3v-149z" fill="#D0A96C"/>
<path transform="translate(1059,107)" d="m0 0h6v27l-17 2-10 4-9 8-4 9-2 19-1 38-1 17h-27v-122h27l1 15 13-10 9-4z" fill="#FCFCFC"/>
<path transform="translate(899,132)" d="m0 0h10l14 4 9 7 5 8 3 10 1 13-2 10-5 10-5 6-10 6-5 2-7 1h-9l-11-4-10-8-7-11-3-11 1-15 5-12 7-8 10-6z" fill="#15161B"/>
<path transform="translate(1720,132)" d="m0 0h13l8 2 8 4 8 9 4 11 1 4v12l-3 13-6 9-4 5-8 5-9 3h-10l-13-4-9-7-7-10-4-13v-8l3-13 7-11 8-7 7-3z" fill="#14161B"/>
<path transform="translate(1144,132)" d="m0 0h11l13 4 6 4 5 6 5 12 1 6v14l-3 10-5 8-9 8-12 5h-11l-12-4-6-4-7-7-4-7-3-11v-10l3-12 5-10 9-8 8-3z" fill="#14161A"/>
<path transform="translate(1454,109)" d="m0 0h29l1 122-1 1h-29z" fill="#FDFCFC"/>
<path transform="translate(226,198)" d="m0 0h3l-1 19-23 10-34 15-25 11-23 10-2 1-38-17-28-12-2-2v-18l20 8 30 13 16 7h5l15-7 39-17 46-20z" fill="#141619"/>
<path transform="translate(225,117)" d="m0 0h3v18l-43 19-34 15-25 11-5 2v-2l-6-1-20-9-37-16-5-3v-17l5 1 30 13 25 11 9 3 34-15 30-13z" fill="#141619"/>
<path transform="translate(1894,107)" d="m0 0h2l14 34 9 22v4l-8 1h-34l-8-1 3-9 16-39z" fill="#141619"/>
<path transform="translate(1464,56)" d="m0 0h8l8 4 6 8v9l-4 6-6 5-4 2h-9l-8-5-4-6-1-3v-8l4-6 7-5z" fill="#FAF9F7"/>
<path transform="translate(13,115)" d="m0 0 1 2 10 3 16 7 14 6-1 18-9-3-28-12h-3z" fill="#6059CD"/>
<path transform="translate(14,199)" d="m0 0 5 1 26 11 8 4v18l-9-3-28-12-2-2z" fill="#6159CD"/>
</svg>
